<svg xmlns="http://www.w3.org/2000/svg" width="896.536" height="370.606" viewBox="0 0 896.536 370.606">
    <defs>
        <clipPath id="clip-path">
            <path id="Rectangle_13" fill="none" d="M0 0H285.554V100.296H0z" transform="translate(-5615.333 242)"/>
        </clipPath>
        <style>
            .cls-4{fill:none}.cls-2{fill:#f2f2f2}.cls-2,.cls-4{stroke:#484d51;stroke-linecap:round;stroke-linejoin:round;stroke-width:4px}
        </style>
    </defs>
    <g id="Group_62" transform="translate(-1169.897 -158)">
        <path id="Rectangle_11" d="M0 0H686.363V100.296H0z" class="cls-2" transform="translate(1171.897 242)"/>
        <path id="Rectangle_12" d="M0 0H285.554V100.296H0z" class="cls-2" transform="translate(1171.897 242)"/>
        <g id="Group_6" transform="translate(6787.23)">
            <g id="Group_5" clip-path="url(#clip-path)">
                <g id="Group_4">
                    <path id="Line_2" d="M0 1635.581L1635.581 0" class="cls-4" transform="translate(-5872.539 -293.223)"/>
                    <path id="Line_3" d="M0 1635.581L1635.581 0" class="cls-4" transform="translate(-5888.028 -308.712)"/>
                    <path id="Line_4" d="M0 1635.581L1635.581 0" class="cls-4" transform="translate(-5903.517 -324.201)"/>
                    <path id="Line_5" d="M0 1635.581L1635.581 0" class="cls-4" transform="translate(-5919.005 -339.69)"/>
                    <path id="Line_6" d="M0 1635.581L1635.581 0" class="cls-4" transform="translate(-5934.494 -355.178)"/>
                    <path id="Line_7" d="M0 1635.581L1635.581 0" class="cls-4" transform="translate(-5949.983 -370.667)"/>
                    <path id="Line_8" d="M0 1635.581L1635.581 0" class="cls-4" transform="translate(-5965.472 -386.156)"/>
                    <path id="Line_9" d="M0 1635.581L1635.581 0" class="cls-4" transform="translate(-5980.961 -401.645)"/>
                    <path id="Line_10" d="M0 1635.581L1635.581 0" class="cls-4" transform="translate(-5996.45 -417.134)"/>
                    <path id="Line_11" d="M0 1635.581L1635.581 0" class="cls-4" transform="translate(-6011.938 -432.623)"/>
                    <path id="Line_12" d="M0 1635.581L1635.581 0" class="cls-4" transform="translate(-6027.427 -448.112)"/>
                    <path id="Line_13" d="M0 1635.581L1635.581 0" class="cls-4" transform="translate(-6042.916 -463.6)"/>
                    <path id="Line_14" d="M0 1635.581L1635.581 0" class="cls-4" transform="translate(-6058.405 -479.089)"/>
                    <path id="Line_15" d="M0 1635.581L1635.581 0" class="cls-4" transform="translate(-6073.894 -494.578)"/>
                    <path id="Line_16" d="M0 1635.581L1635.581 0" class="cls-4" transform="translate(-6089.383 -510.067)"/>
                    <path id="Line_17" d="M0 1635.581L1635.581 0" class="cls-4" transform="translate(-6104.872 -525.556)"/>
                    <path id="Line_18" d="M0 1635.581L1635.581 0" class="cls-4" transform="translate(-6120.36 -541.045)"/>
                    <path id="Line_19" d="M0 1635.581L1635.581 0" class="cls-4" transform="translate(-6135.849 -556.533)"/>
                    <path id="Line_20" d="M0 1635.581L1635.581 0" class="cls-4" transform="translate(-6151.338 -572.022)"/>
                    <path id="Line_21" d="M0 1635.581L1635.581 0" class="cls-4" transform="translate(-6166.827 -587.511)"/>
                    <path id="Line_22" d="M0 1635.581L1635.581 0" class="cls-4" transform="translate(-6182.316 -603)"/>
                    <path id="Line_23" d="M0 1635.581L1635.581 0" class="cls-4" transform="translate(-6197.805 -618.489)"/>
                    <path id="Line_24" d="M0 1635.581L1635.581 0" class="cls-4" transform="translate(-6213.293 -633.978)"/>
                    <path id="Line_25" d="M0 1635.581L1635.581 0" class="cls-4" transform="translate(-6228.782 -649.466)"/>
                    <path id="Line_26" d="M0 1635.581L1635.581 0" class="cls-4" transform="translate(-6244.271 -664.955)"/>
                    <path id="Line_27" d="M0 1635.581L1635.581 0" class="cls-4" transform="translate(-6259.76 -680.444)"/>
                    <path id="Line_28" d="M0 1635.581L1635.581 0" class="cls-4" transform="translate(-6275.249 -695.933)"/>
                    <path id="Line_29" d="M0 1635.581L1635.581 0" class="cls-4" transform="translate(-6290.738 -711.422)"/>
                    <path id="Line_30" d="M0 1635.581L1635.581 0" class="cls-4" transform="translate(-6306.227 -726.911)"/>
                    <path id="Line_31" d="M0 1635.581L1635.581 0" class="cls-4" transform="translate(-6321.715 -742.4)"/>
                    <path id="Line_32" d="M0 1635.581L1635.581 0" class="cls-4" transform="translate(-6337.204 -757.888)"/>
                    <path id="Line_33" d="M0 1635.581L1635.581 0" class="cls-4" transform="translate(-6352.693 -773.377)"/>
                    <path id="Line_34" d="M0 1635.581L1635.581 0" class="cls-4" transform="translate(-6368.182 -788.866)"/>
                    <path id="Line_35" d="M0 1635.581L1635.581 0" class="cls-4" transform="translate(-6383.671 -804.355)"/>
                    <path id="Line_36" d="M0 1635.581L1635.581 0" class="cls-4" transform="translate(-5857.05 -277.734)"/>
                    <path id="Line_37" d="M0 1635.581L1635.581 0" class="cls-4" transform="translate(-5841.561 -262.245)"/>
                    <path id="Line_38" d="M0 1635.581L1635.581 0" class="cls-4" transform="translate(-5826.072 -246.757)"/>
                    <path id="Line_39" d="M0 1635.581L1635.581 0" class="cls-4" transform="translate(-5810.583 -231.268)"/>
                    <path id="Line_40" d="M0 1635.581L1635.581 0" class="cls-4" transform="translate(-5795.095 -215.779)"/>
                    <path id="Line_41" d="M0 1635.581L1635.581 0" class="cls-4" transform="translate(-5779.606 -200.29)"/>
                    <path id="Line_42" d="M0 1635.581L1635.581 0" class="cls-4" transform="translate(-5764.117 -184.801)"/>
                    <path id="Line_43" d="M0 1635.581L1635.581 0" class="cls-4" transform="translate(-5748.628 -169.312)"/>
                    <path id="Line_44" d="M0 1635.581L1635.581 0" class="cls-4" transform="translate(-5733.139 -153.823)"/>
                    <path id="Line_45" d="M0 1635.581L1635.581 0" class="cls-4" transform="translate(-5717.65 -138.335)"/>
                    <path id="Line_46" d="M0 1635.581L1635.581 0" class="cls-4" transform="translate(-5702.162 -122.846)"/>
                    <path id="Line_47" d="M0 1635.581L1635.581 0" class="cls-4" transform="translate(-5686.673 -107.357)"/>
                    <path id="Line_48" d="M0 1635.581L1635.581 0" class="cls-4" transform="translate(-5671.184 -91.868)"/>
                    <path id="Line_49" d="M0 1635.581L1635.581 0" class="cls-4" transform="translate(-5655.695 -76.379)"/>
                    <path id="Line_50" d="M0 1635.581L1635.581 0" class="cls-4" transform="translate(-5640.206 -60.89)"/>
                </g>
            </g>
        </g>
        <path id="Path_4" d="M-4928.974 242v100.3h-160.64a182.428 182.428 0 0 1 30.52-100.3z" class="cls-2" transform="translate(6787.23)"/>
        <circle id="Ellipse_5" cx="183.303" cy="183.303" r="183.303" fill="#484d51" stroke="#484d51" stroke-linecap="round" stroke-linejoin="round" stroke-width="4px" transform="translate(1697.828 160)"/>
    </g>
</svg>
