<svg xmlns="http://www.w3.org/2000/svg" width="306.207" height="577.036" viewBox="0 0 306.207 577.036">
    <defs>
        <clipPath id="clip-path">
            <path id="Rectangle_14" fill="none" d="M0 0H172.09V146.044H0z" transform="rotate(90 -3565.532 -2932.586)"/>
        </clipPath>
        <style>
            .cls-5{fill:none}.cls-2{fill:#f2f2f2}.cls-2,.cls-5{stroke:#484d51;stroke-linecap:round;stroke-linejoin:round;stroke-width:4px}
        </style>
    </defs>
    <g id="Group_59" transform="translate(-141.069 -230)">
        <path id="Rectangle_8" d="M0 0H573.036V146.044H0z" class="cls-2" transform="rotate(90 28.556 260.557)"/>
        <path id="Rectangle_9" d="M0 0H172.09V146.044H0z" class="cls-2" transform="rotate(90 -171.917 461.03)"/>
        <path id="Path_1" fill="#89a4a9" stroke="#484d51" stroke-linecap="round" stroke-linejoin="round" stroke-width="4px" d="M-6566.062 421.493a170.3 170.3 0 0 0 224.108-88.219l-156.163-67.945z" transform="translate(6787.23)"/>
        <path id="Path_2" d="M-6498.117 265.329v170.344a169.811 169.811 0 0 1-67.952-14.177z" class="cls-2" transform="translate(6787.23)"/>
        <g id="Group_9" transform="translate(6787.23)">
            <g id="Group_8" clip-path="url(#clip-path)">
                <g id="Group_7">
                    <path id="Line_51" d="M1493.372 1493.372L0 0" class="cls-5" transform="translate(-7265.336 -185.941)"/>
                    <path id="Line_52" d="M1493.372 1493.372L0 0" class="cls-5" transform="translate(-7279.479 -171.799)"/>
                    <path id="Line_53" d="M1493.372 1493.372L0 0" class="cls-5" transform="translate(-7293.621 -157.657)"/>
                    <path id="Line_54" d="M1493.372 1493.372L0 0" class="cls-5" transform="translate(-7307.763 -143.515)"/>
                    <path id="Line_55" d="M1493.372 1493.372L0 0" class="cls-5" transform="translate(-7321.905 -129.372)"/>
                    <path id="Line_56" d="M1493.372 1493.372L0 0" class="cls-5" transform="translate(-7336.047 -115.23)"/>
                    <path id="Line_57" d="M1493.372 1493.372L0 0" class="cls-5" transform="translate(-7350.189 -101.088)"/>
                    <path id="Line_58" d="M1493.372 1493.372L0 0" class="cls-5" transform="translate(-7364.332 -86.946)"/>
                    <path id="Line_59" d="M1493.372 1493.372L0 0" class="cls-5" transform="translate(-7378.474 -72.804)"/>
                    <path id="Line_60" d="M1493.372 1493.372L0 0" class="cls-5" transform="translate(-7392.616 -58.662)"/>
                    <path id="Line_61" d="M1493.372 1493.372L0 0" class="cls-5" transform="translate(-7406.758 -44.52)"/>
                    <path id="Line_62" d="M1493.372 1493.372L0 0" class="cls-5" transform="translate(-7420.9 -30.377)"/>
                    <path id="Line_63" d="M1493.372 1493.372L0 0" class="cls-5" transform="translate(-7435.042 -16.235)"/>
                    <path id="Line_64" d="M1493.372 1493.372L0 0" class="cls-5" transform="translate(-7449.184 -2.093)"/>
                    <path id="Line_65" d="M1493.372 1493.372L0 0" class="cls-5" transform="translate(-7463.326 12.049)"/>
                    <path id="Line_66" d="M1493.372 1493.372L0 0" class="cls-5" transform="translate(-7477.468 26.191)"/>
                    <path id="Line_67" d="M1493.372 1493.372L0 0" class="cls-5" transform="translate(-7491.611 40.333)"/>
                    <path id="Line_68" d="M1493.372 1493.372L0 0" class="cls-5" transform="translate(-7505.753 54.475)"/>
                    <path id="Line_69" d="M1493.372 1493.372L0 0" class="cls-5" transform="translate(-7519.895 68.617)"/>
                    <path id="Line_70" d="M1493.372 1493.372L0 0" class="cls-5" transform="translate(-7534.037 82.76)"/>
                    <path id="Line_71" d="M1493.372 1493.372L0 0" class="cls-5" transform="translate(-7548.179 96.902)"/>
                    <path id="Line_72" d="M1493.372 1493.372L0 0" class="cls-5" transform="translate(-7562.321 111.044)"/>
                    <path id="Line_73" d="M1493.372 1493.372L0 0" class="cls-5" transform="translate(-7576.463 125.186)"/>
                    <path id="Line_74" d="M1493.372 1493.372L0 0" class="cls-5" transform="translate(-7590.605 139.328)"/>
                    <path id="Line_75" d="M1493.372 1493.372L0 0" class="cls-5" transform="translate(-7604.748 153.47)"/>
                    <path id="Line_76" d="M1493.372 1493.372L0 0" class="cls-5" transform="translate(-7618.89 167.612)"/>
                    <path id="Line_77" d="M1493.372 1493.372L0 0" class="cls-5" transform="translate(-7633.032 181.755)"/>
                    <path id="Line_78" d="M1493.372 1493.372L0 0" class="cls-5" transform="translate(-7647.174 195.897)"/>
                    <path id="Line_79" d="M1493.372 1493.372L0 0" class="cls-5" transform="translate(-7661.316 210.039)"/>
                    <path id="Line_80" d="M1493.372 1493.372L0 0" class="cls-5" transform="translate(-7675.458 224.181)"/>
                    <path id="Line_81" d="M1493.372 1493.372L0 0" class="cls-5" transform="translate(-7689.601 238.323)"/>
                    <path id="Line_82" d="M1493.372 1493.372L0 0" class="cls-5" transform="translate(-7703.743 252.465)"/>
                    <path id="Line_83" d="M1493.372 1493.372L0 0" class="cls-5" transform="translate(-7717.885 266.607)"/>
                    <path id="Line_84" d="M1493.372 1493.372L0 0" class="cls-5" transform="translate(-7732.027 280.75)"/>
                    <path id="Line_85" d="M1493.372 1493.372L0 0" class="cls-5" transform="translate(-7251.194 -200.083)"/>
                    <path id="Line_86" d="M1493.372 1493.372L0 0" class="cls-5" transform="translate(-7237.052 -214.225)"/>
                    <path id="Line_87" d="M1493.372 1493.372L0 0" class="cls-5" transform="translate(-7222.91 -228.367)"/>
                    <path id="Line_88" d="M1493.372 1493.372L0 0" class="cls-5" transform="translate(-7208.768 -242.51)"/>
                    <path id="Line_89" d="M1493.372 1493.372L0 0" class="cls-5" transform="translate(-7194.626 -256.652)"/>
                    <path id="Line_90" d="M1493.372 1493.372L0 0" class="cls-5" transform="translate(-7180.483 -270.794)"/>
                    <path id="Line_91" d="M1493.372 1493.372L0 0" class="cls-5" transform="translate(-7166.341 -284.936)"/>
                    <path id="Line_92" d="M1493.372 1493.372L0 0" class="cls-5" transform="translate(-7152.199 -299.078)"/>
                    <path id="Line_93" d="M1493.372 1493.372L0 0" class="cls-5" transform="translate(-7138.057 -313.22)"/>
                    <path id="Line_94" d="M1493.372 1493.372L0 0" class="cls-5" transform="translate(-7123.915 -327.362)"/>
                    <path id="Line_95" d="M1493.372 1493.372L0 0" class="cls-5" transform="translate(-7109.773 -341.504)"/>
                    <path id="Line_96" d="M1493.372 1493.372L0 0" class="cls-5" transform="translate(-7095.631 -355.647)"/>
                    <path id="Line_97" d="M1493.372 1493.372L0 0" class="cls-5" transform="translate(-7081.489 -369.789)"/>
                    <path id="Line_98" d="M1493.372 1493.372L0 0" class="cls-5" transform="translate(-7067.347 -383.931)"/>
                    <path id="Line_99" d="M1493.372 1493.372L0 0" class="cls-5" transform="translate(-7053.205 -398.073)"/>
                </g>
            </g>
        </g>
    </g>
</svg>
