<svg xmlns="http://www.w3.org/2000/svg" width="351.521" height="122.062" viewBox="0 0 351.521 122.062">
    <defs>
        <clipPath id="clip-path">
            <path id="Rectangle_28" fill="none" d="M0 0H351.521V122.062H0z" transform="translate(-5615.556 4066.44)"/>
        </clipPath>
        <style>
            .cls-3{fill:none;stroke:#484d51;stroke-linecap:round;stroke-linejoin:round;stroke-width:4px}
        </style>
    </defs>
    <g id="Group_12" transform="translate(5615.556 -4066.44)">
        <g id="Group_11" clip-path="url(#clip-path)">
            <g id="Group_10">
                <path id="Line_100" d="M2179.621 2179.621L0 0" class="cls-3" transform="translate(-5840.795 3139.411)"/>
                <path id="Line_101" d="M2179.621 2179.621L0 0" class="cls-3" transform="translate(-5861.436 3160.052)"/>
                <path id="Line_102" d="M2179.621 2179.621L0 0" class="cls-3" transform="translate(-5882.077 3180.693)"/>
                <path id="Line_103" d="M2179.621 2179.621L0 0" class="cls-3" transform="translate(-5902.717 3201.334)"/>
                <path id="Line_104" d="M2179.621 2179.621L0 0" class="cls-3" transform="translate(-5923.358 3221.975)"/>
                <path id="Line_105" d="M2179.621 2179.621L0 0" class="cls-3" transform="translate(-5943.999 3242.616)"/>
                <path id="Line_106" d="M2179.621 2179.621L0 0" class="cls-3" transform="translate(-5964.64 3263.257)"/>
                <path id="Line_107" d="M2179.621 2179.621L0 0" class="cls-3" transform="translate(-5985.281 3283.897)"/>
                <path id="Line_108" d="M2179.621 2179.621L0 0" class="cls-3" transform="translate(-6005.922 3304.538)"/>
                <path id="Line_109" d="M2179.621 2179.621L0 0" class="cls-3" transform="translate(-6026.563 3325.179)"/>
                <path id="Line_110" d="M2179.621 2179.621L0 0" class="cls-3" transform="translate(-6047.204 3345.82)"/>
                <path id="Line_111" d="M2179.621 2179.621L0 0" class="cls-3" transform="translate(-6067.844 3366.461)"/>
                <path id="Line_112" d="M2179.621 2179.621L0 0" class="cls-3" transform="translate(-6088.485 3387.102)"/>
                <path id="Line_113" d="M2179.621 2179.621L0 0" class="cls-3" transform="translate(-6109.126 3407.743)"/>
                <path id="Line_114" d="M2179.621 2179.621L0 0" class="cls-3" transform="translate(-6129.767 3428.384)"/>
                <path id="Line_115" d="M2179.621 2179.621L0 0" class="cls-3" transform="translate(-6150.408 3449.024)"/>
                <path id="Line_116" d="M2179.621 2179.621L0 0" class="cls-3" transform="translate(-6171.049 3469.665)"/>
                <path id="Line_117" d="M2179.621 2179.621L0 0" class="cls-3" transform="translate(-6191.689 3490.306)"/>
                <path id="Line_118" d="M2179.621 2179.621L0 0" class="cls-3" transform="translate(-6212.331 3510.947)"/>
                <path id="Line_119" d="M2179.621 2179.621L0 0" class="cls-3" transform="translate(-6232.971 3531.588)"/>
                <path id="Line_120" d="M2179.621 2179.621L0 0" class="cls-3" transform="translate(-6253.612 3552.229)"/>
                <path id="Line_121" d="M2179.621 2179.621L0 0" class="cls-3" transform="translate(-6274.253 3572.87)"/>
                <path id="Line_122" d="M2179.621 2179.621L0 0" class="cls-3" transform="translate(-6294.894 3593.51)"/>
                <path id="Line_123" d="M2179.621 2179.621L0 0" class="cls-3" transform="translate(-6315.535 3614.151)"/>
                <path id="Line_124" d="M2179.621 2179.621L0 0" class="cls-3" transform="translate(-6336.176 3634.792)"/>
                <path id="Line_125" d="M2179.621 2179.621L0 0" class="cls-3" transform="translate(-6356.817 3655.433)"/>
                <path id="Line_126" d="M2179.621 2179.621L0 0" class="cls-3" transform="translate(-6377.458 3676.074)"/>
                <path id="Line_127" d="M2179.621 2179.621L0 0" class="cls-3" transform="translate(-6398.099 3696.715)"/>
                <path id="Line_128" d="M2179.621 2179.621L0 0" class="cls-3" transform="translate(-6418.739 3717.356)"/>
                <path id="Line_129" d="M2179.621 2179.621L0 0" class="cls-3" transform="translate(-6439.38 3737.997)"/>
                <path id="Line_130" d="M2179.621 2179.621L0 0" class="cls-3" transform="translate(-6460.021 3758.637)"/>
                <path id="Line_131" d="M2179.621 2179.621L0 0" class="cls-3" transform="translate(-6480.662 3779.278)"/>
                <path id="Line_132" d="M2179.621 2179.621L0 0" class="cls-3" transform="translate(-6501.303 3799.919)"/>
                <path id="Line_133" d="M2179.621 2179.621L0 0" class="cls-3" transform="translate(-6521.944 3820.56)"/>
                <path id="Line_134" d="M2179.621 2179.621L0 0" class="cls-3" transform="translate(-5820.154 3118.771)"/>
                <path id="Line_135" d="M2179.621 2179.621L0 0" class="cls-3" transform="translate(-5799.513 3098.13)"/>
                <path id="Line_136" d="M2179.621 2179.621L0 0" class="cls-3" transform="translate(-5778.872 3077.489)"/>
                <path id="Line_137" d="M2179.621 2179.621L0 0" class="cls-3" transform="translate(-5758.231 3056.848)"/>
                <path id="Line_138" d="M2179.621 2179.621L0 0" class="cls-3" transform="translate(-5737.59 3036.207)"/>
                <path id="Line_139" d="M2179.621 2179.621L0 0" class="cls-3" transform="translate(-5716.95 3015.566)"/>
                <path id="Line_140" d="M2179.621 2179.621L0 0" class="cls-3" transform="translate(-5696.309 2994.925)"/>
                <path id="Line_141" d="M2179.621 2179.621L0 0" class="cls-3" transform="translate(-5675.668 2974.284)"/>
                <path id="Line_142" d="M2179.621 2179.621L0 0" class="cls-3" transform="translate(-5655.027 2953.644)"/>
                <path id="Line_143" d="M2179.621 2179.621L0 0" class="cls-3" transform="translate(-5634.386 2933.003)"/>
                <path id="Line_144" d="M2179.621 2179.621L0 0" class="cls-3" transform="translate(-5613.745 2912.362)"/>
                <path id="Line_145" d="M2179.621 2179.621L0 0" class="cls-3" transform="translate(-5593.104 2891.721)"/>
                <path id="Line_146" d="M2179.621 2179.621L0 0" class="cls-3" transform="translate(-5572.463 2871.08)"/>
                <path id="Line_147" d="M2179.621 2179.621L0 0" class="cls-3" transform="translate(-5551.823 2850.439)"/>
                <path id="Line_148" d="M2179.621 2179.621L0 0" class="cls-3" transform="translate(-5531.182 2829.798)"/>
            </g>
        </g>
    </g>
</svg>
