<svg xmlns="http://www.w3.org/2000/svg" width="302.841" height="582.936" viewBox="0 0 302.841 582.936">
    <defs>
        <clipPath id="clip-path">
            <path id="Rectángulo_22" fill="none" d="M0 0H177.306V115.634H0z" transform="translate(-4336.35 1900.95)"/>
        </clipPath>
        <style>
            .cls-4{fill:none}.cls-2{fill:#f2f2f2}.cls-2,.cls-4{stroke:#484d51;stroke-linecap:round;stroke-linejoin:round;stroke-width:4px}
        </style>
    </defs>
    <g id="Group_72" transform="translate(-187.355 -1898.949)">
        <path id="Rectángulo_21" d="M0 0H177.306V457.398H0z" class="cls-2" transform="translate(189.355 1900.949)"/>
        <path id="Rectángulo_22-2" d="M0 0H177.306V115.634H0z" class="cls-2" transform="translate(189.355 1900.95)"/>
        <g id="Group_21" transform="translate(4525.705)">
            <g id="Group_20" clip-path="url(#clip-path)">
                <g id="Group_19">
                    <path id="Line_198" d="M1493.372 1493.372L0 0" class="cls-4" transform="translate(-5054.92 1012.674)"/>
                    <path id="Line_199" d="M1493.372 1493.372L0 0" class="cls-4" transform="translate(-5069.062 1026.816)"/>
                    <path id="Line_200" d="M1493.372 1493.372L0 0" class="cls-4" transform="translate(-5083.204 1040.958)"/>
                    <path id="Line_201" d="M1493.372 1493.372L0 0" class="cls-4" transform="translate(-5097.346 1055.1)"/>
                    <path id="Line_202" d="M1493.372 1493.372L0 0" class="cls-4" transform="translate(-5111.489 1069.242)"/>
                    <path id="Line_203" d="M1493.372 1493.372L0 0" class="cls-4" transform="translate(-5125.631 1083.384)"/>
                    <path id="Line_204" d="M1493.372 1493.372L0 0" class="cls-4" transform="translate(-5139.773 1097.526)"/>
                    <path id="Line_205" d="M1493.372 1493.372L0 0" class="cls-4" transform="translate(-5153.915 1111.668)"/>
                    <path id="Line_206" d="M1493.372 1493.372L0 0" class="cls-4" transform="translate(-5168.057 1125.811)"/>
                    <path id="Line_207" d="M1493.372 1493.372L0 0" class="cls-4" transform="translate(-5182.199 1139.953)"/>
                    <path id="Line_208" d="M1493.372 1493.372L0 0" class="cls-4" transform="translate(-5196.341 1154.095)"/>
                    <path id="Line_209" d="M1493.372 1493.372L0 0" class="cls-4" transform="translate(-5210.483 1168.237)"/>
                    <path id="Line_210" d="M1493.372 1493.372L0 0" class="cls-4" transform="translate(-5224.625 1182.379)"/>
                    <path id="Line_211" d="M1493.372 1493.372L0 0" class="cls-4" transform="translate(-5238.768 1196.521)"/>
                    <path id="Line_212" d="M1493.372 1493.372L0 0" class="cls-4" transform="translate(-5252.91 1210.663)"/>
                    <path id="Line_213" d="M1493.372 1493.372L0 0" class="cls-4" transform="translate(-5267.052 1224.806)"/>
                    <path id="Line_214" d="M1493.372 1493.372L0 0" class="cls-4" transform="translate(-5281.194 1238.948)"/>
                    <path id="Line_215" d="M1493.372 1493.372L0 0" class="cls-4" transform="translate(-5295.336 1253.09)"/>
                    <path id="Line_216" d="M1493.372 1493.372L0 0" class="cls-4" transform="translate(-5309.479 1267.232)"/>
                    <path id="Line_217" d="M1493.372 1493.372L0 0" class="cls-4" transform="translate(-5323.621 1281.374)"/>
                    <path id="Line_218" d="M1493.372 1493.372L0 0" class="cls-4" transform="translate(-5337.763 1295.516)"/>
                    <path id="Line_219" d="M1493.372 1493.372L0 0" class="cls-4" transform="translate(-5351.905 1309.658)"/>
                    <path id="Line_220" d="M1493.372 1493.372L0 0" class="cls-4" transform="translate(-5366.047 1323.801)"/>
                    <path id="Line_221" d="M1493.372 1493.372L0 0" class="cls-4" transform="translate(-5380.189 1337.943)"/>
                    <path id="Line_222" d="M1493.372 1493.372L0 0" class="cls-4" transform="translate(-5394.331 1352.085)"/>
                    <path id="Line_223" d="M1493.372 1493.372L0 0" class="cls-4" transform="translate(-5408.474 1366.227)"/>
                    <path id="Line_224" d="M1493.372 1493.372L0 0" class="cls-4" transform="translate(-5422.616 1380.369)"/>
                    <path id="Line_225" d="M1493.372 1493.372L0 0" class="cls-4" transform="translate(-5436.758 1394.511)"/>
                    <path id="Line_226" d="M1493.372 1493.372L0 0" class="cls-4" transform="translate(-5450.9 1408.653)"/>
                    <path id="Line_227" d="M1493.372 1493.372L0 0" class="cls-4" transform="translate(-5465.042 1422.796)"/>
                    <path id="Line_228" d="M1493.372 1493.372L0 0" class="cls-4" transform="translate(-5479.184 1436.938)"/>
                    <path id="Line_229" d="M1493.372 1493.372L0 0" class="cls-4" transform="translate(-5493.326 1451.08)"/>
                    <path id="Line_230" d="M1493.372 1493.372L0 0" class="cls-4" transform="translate(-5507.468 1465.222)"/>
                    <path id="Line_231" d="M1493.372 1493.372L0 0" class="cls-4" transform="translate(-5521.61 1479.364)"/>
                    <path id="Line_232" d="M1493.372 1493.372L0 0" class="cls-4" transform="translate(-5040.778 998.531)"/>
                    <path id="Line_233" d="M1493.372 1493.372L0 0" class="cls-4" transform="translate(-5026.636 984.389)"/>
                    <path id="Line_234" d="M1493.372 1493.372L0 0" class="cls-4" transform="translate(-5012.494 970.247)"/>
                    <path id="Line_235" d="M1493.372 1493.372L0 0" class="cls-4" transform="translate(-4998.352 956.105)"/>
                    <path id="Line_236" d="M1493.372 1493.372L0 0" class="cls-4" transform="translate(-4984.209 941.963)"/>
                    <path id="Line_237" d="M1493.372 1493.372L0 0" class="cls-4" transform="translate(-4970.067 927.821)"/>
                    <path id="Line_238" d="M1493.372 1493.372L0 0" class="cls-4" transform="translate(-4955.925 913.679)"/>
                    <path id="Line_239" d="M1493.372 1493.372L0 0" class="cls-4" transform="translate(-4941.783 899.536)"/>
                    <path id="Line_240" d="M1493.372 1493.372L0 0" class="cls-4" transform="translate(-4927.641 885.394)"/>
                    <path id="Line_241" d="M1493.372 1493.372L0 0" class="cls-4" transform="translate(-4913.499 871.252)"/>
                    <path id="Line_242" d="M1493.372 1493.372L0 0" class="cls-4" transform="translate(-4899.356 857.11)"/>
                    <path id="Line_243" d="M1493.372 1493.372L0 0" class="cls-4" transform="translate(-4885.214 842.968)"/>
                    <path id="Line_244" d="M1493.372 1493.372L0 0" class="cls-4" transform="translate(-4871.072 828.826)"/>
                    <path id="Line_245" d="M1493.372 1493.372L0 0" class="cls-4" transform="translate(-4856.93 814.684)"/>
                    <path id="Line_246" d="M1493.372 1493.372L0 0" class="cls-4" transform="translate(-4842.788 800.542)"/>
                </g>
            </g>
        </g>
        <circle id="Elipse_3" cx="121.539" cy="121.539" r="121.539" fill="#484d51" stroke="#484d51" stroke-linecap="round" stroke-linejoin="round" stroke-width="4px" transform="translate(245.12 2236.809)"/>
        <path id="Trazado_64" d="M-4159.049 2236.8v121.543h-121.535a121.54 121.54 0 0 1 121.535-121.543z" class="cls-2" transform="translate(4525.705)"/>
    </g>
</svg>
