<svg xmlns="http://www.w3.org/2000/svg" width="282.016" height="459.084" viewBox="0 0 282.016 459.084">
    <defs>
        <clipPath id="clip-path">
            <path id="Rectangle_128" fill="none" d="M0 0H168.536V111.404H0z" transform="rotate(-180 -287.191 1099.688)"/>
        </clipPath>
        <style>
            .cls-5{fill:none}.cls-3,.cls-5{stroke:#484d51;stroke-linecap:round;stroke-linejoin:round;stroke-width:4px}.cls-3{fill:#f2f2f2}
        </style>
    </defs>
    <g id="Group_76" transform="translate(-1365.307 -1742.293)">
        <circle id="Ellipse_20" cx="124.142" cy="124.142" r="124.142" fill="#484d51" stroke="#484d51" stroke-linecap="round" stroke-linejoin="round" stroke-width="4px" transform="translate(1397.039 1744.293)"/>
        <path id="Rectangle_126" d="M0 0H168.536V276.651H0z" class="cls-3" transform="rotate(-180 767.922 1099.688)"/>
        <path id="Path_23" d="M-700.71 1922.728a124.124 124.124 0 0 0 111.668 69.851 124.076 124.076 0 0 0 14.66-.868v-68.983z" class="cls-3" transform="translate(2110.226)"/>
        <path id="Rectangle_127" d="M0 0H168.536V111.404H0z" class="cls-3" transform="rotate(-180 767.922 1099.688)"/>
        <g id="Group_37" transform="translate(2110.226)">
            <g id="Group_36" clip-path="url(#clip-path)">
                <g id="Group_35">
                    <path id="Line_394" d="M0 1669.783L1669.783 0" class="cls-5" transform="translate(-1768.233 1200.909)"/>
                    <path id="Line_395" d="M0 1669.783L1669.783 0" class="cls-5" transform="translate(-1752.42 1216.722)"/>
                    <path id="Line_396" d="M0 1669.783L1669.783 0" class="cls-5" transform="translate(-1736.608 1232.535)"/>
                    <path id="Line_397" d="M0 1669.783L1669.783 0" class="cls-5" transform="translate(-1720.795 1248.347)"/>
                    <path id="Line_398" d="M0 1669.783L1669.783 0" class="cls-5" transform="translate(-1704.982 1264.16)"/>
                    <path id="Line_399" d="M0 1669.783L1669.783 0" class="cls-5" transform="translate(-1689.169 1279.973)"/>
                    <path id="Line_400" d="M0 1669.783L1669.783 0" class="cls-5" transform="translate(-1673.357 1295.786)"/>
                    <path id="Line_401" d="M0 1669.783L1669.783 0" class="cls-5" transform="translate(-1657.544 1311.598)"/>
                    <path id="Line_402" d="M0 1669.783L1669.783 0" class="cls-5" transform="translate(-1641.731 1327.411)"/>
                    <path id="Line_403" d="M0 1669.783L1669.783 0" class="cls-5" transform="translate(-1625.918 1343.224)"/>
                    <path id="Line_404" d="M0 1669.783L1669.783 0" class="cls-5" transform="translate(-1610.106 1359.036)"/>
                    <path id="Line_405" d="M0 1669.783L1669.783 0" class="cls-5" transform="translate(-1594.293 1374.849)"/>
                    <path id="Line_406" d="M0 1669.783L1669.783 0" class="cls-5" transform="translate(-1578.48 1390.662)"/>
                    <path id="Line_407" d="M0 1669.783L1669.783 0" class="cls-5" transform="translate(-1562.668 1406.475)"/>
                    <path id="Line_408" d="M0 1669.783L1669.783 0" class="cls-5" transform="translate(-1546.855 1422.287)"/>
                    <path id="Line_409" d="M0 1669.783L1669.783 0" class="cls-5" transform="translate(-1531.042 1438.1)"/>
                    <path id="Line_410" d="M0 1669.783L1669.783 0" class="cls-5" transform="translate(-1515.229 1453.913)"/>
                    <path id="Line_411" d="M0 1669.783L1669.783 0" class="cls-5" transform="translate(-1499.417 1469.726)"/>
                    <path id="Line_412" d="M0 1669.783L1669.783 0" class="cls-5" transform="translate(-1483.604 1485.538)"/>
                    <path id="Line_413" d="M0 1669.783L1669.783 0" class="cls-5" transform="translate(-1467.791 1501.351)"/>
                    <path id="Line_414" d="M0 1669.783L1669.783 0" class="cls-5" transform="translate(-1451.978 1517.164)"/>
                    <path id="Line_415" d="M0 1669.783L1669.783 0" class="cls-5" transform="translate(-1436.166 1532.977)"/>
                    <path id="Line_416" d="M0 1669.783L1669.783 0" class="cls-5" transform="translate(-1420.353 1548.789)"/>
                    <path id="Line_417" d="M0 1669.783L1669.783 0" class="cls-5" transform="translate(-1404.54 1564.602)"/>
                    <path id="Line_418" d="M0 1669.783L1669.783 0" class="cls-5" transform="translate(-1388.727 1580.415)"/>
                    <path id="Line_419" d="M0 1669.783L1669.783 0" class="cls-5" transform="translate(-1372.915 1596.228)"/>
                    <path id="Line_420" d="M0 1669.783L1669.783 0" class="cls-5" transform="translate(-1357.102 1612.04)"/>
                    <path id="Line_421" d="M0 1669.783L1669.783 0" class="cls-5" transform="translate(-1341.289 1627.853)"/>
                    <path id="Line_422" d="M0 1669.783L1669.783 0" class="cls-5" transform="translate(-1325.477 1643.666)"/>
                    <path id="Line_423" d="M0 1669.783L1669.783 0" class="cls-5" transform="translate(-1309.664 1659.479)"/>
                    <path id="Line_424" d="M0 1669.783L1669.783 0" class="cls-5" transform="translate(-1293.851 1675.291)"/>
                    <path id="Line_425" d="M0 1669.783L1669.783 0" class="cls-5" transform="translate(-1278.038 1691.104)"/>
                    <path id="Line_426" d="M0 1669.783L1669.783 0" class="cls-5" transform="translate(-1262.226 1706.917)"/>
                    <path id="Line_427" d="M0 1669.783L1669.783 0" class="cls-5" transform="translate(-1246.413 1722.729)"/>
                    <path id="Line_428" d="M0 1669.783L1669.783 0" class="cls-5" transform="translate(-1784.046 1185.096)"/>
                    <path id="Line_429" d="M0 1669.783L1669.783 0" class="cls-5" transform="translate(-1799.859 1169.284)"/>
                    <path id="Line_430" d="M0 1669.783L1669.783 0" class="cls-5" transform="translate(-1815.671 1153.471)"/>
                    <path id="Line_431" d="M0 1669.783L1669.783 0" class="cls-5" transform="translate(-1831.484 1137.658)"/>
                    <path id="Line_432" d="M0 1669.783L1669.783 0" class="cls-5" transform="translate(-1847.297 1121.846)"/>
                    <path id="Line_433" d="M0 1669.783L1669.783 0" class="cls-5" transform="translate(-1863.109 1106.033)"/>
                    <path id="Line_434" d="M0 1669.783L1669.783 0" class="cls-5" transform="translate(-1878.922 1090.22)"/>
                    <path id="Line_435" d="M0 1669.783L1669.783 0" class="cls-5" transform="translate(-1894.735 1074.407)"/>
                    <path id="Line_436" d="M0 1669.783L1669.783 0" class="cls-5" transform="translate(-1910.548 1058.595)"/>
                    <path id="Line_437" d="M0 1669.783L1669.783 0" class="cls-5" transform="translate(-1926.36 1042.782)"/>
                    <path id="Line_438" d="M0 1669.783L1669.783 0" class="cls-5" transform="translate(-1942.173 1026.969)"/>
                    <path id="Line_439" d="M0 1669.783L1669.783 0" class="cls-5" transform="translate(-1957.986 1011.156)"/>
                    <path id="Line_440" d="M0 1669.783L1669.783 0" class="cls-5" transform="translate(-1973.799 995.344)"/>
                    <path id="Line_441" d="M0 1669.783L1669.783 0" class="cls-5" transform="translate(-1989.611 979.531)"/>
                    <path id="Line_442" d="M0 1669.783L1669.783 0" class="cls-5" transform="translate(-2005.424 963.718)"/>
                </g>
            </g>
        </g>
    </g>
</svg>
