<svg xmlns="http://www.w3.org/2000/svg" width="467.348" height="359" viewBox="0 0 467.348 359">
    <defs>
        <clipPath id="clip-path">
            <path id="Rectangle_156" fill="none" d="M0 0H156.451V65.681H0z" transform="rotate(180 745.224 190.798)"/>
        </clipPath>
        <style>
            .cls-5{fill:none}.cls-3,.cls-5{stroke:#484d51;stroke-linecap:round;stroke-linejoin:round;stroke-width:4px}.cls-3{fill:#f2f2f2}
        </style>
    </defs>
    <g id="Group_83" transform="translate(-1331.997 -269.984)">
        <path id="Rectangle_153" fill="#484d51" stroke="#484d51" stroke-linecap="round" stroke-linejoin="round" stroke-width="4px" d="M0 0H355V222.752H0z" transform="rotate(90 762.68 1034.665)"/>
        <path id="Rectangle_154" d="M0 0H358.34V65.681H0z" class="cls-3" transform="translate(1333.997 315.915)"/>
        <path id="Rectangle_155" d="M0 0H156.451V65.681H0z" class="cls-3" transform="translate(1333.997 315.915)"/>
        <g id="Group_45">
            <g id="Group_44" clip-path="url(#clip-path)">
                <g id="Group_43">
                    <path id="Line_443" d="M1635.581 0L0 1635.581" class="cls-5" transform="translate(241.175 -684.147)"/>
                    <path id="Line_444" d="M1635.581 0L0 1635.581" class="cls-5" transform="translate(256.664 -668.658)"/>
                    <path id="Line_445" d="M1635.581 0L0 1635.581" class="cls-5" transform="translate(272.153 -653.169)"/>
                    <path id="Line_446" d="M1635.581 0L0 1635.581" class="cls-5" transform="translate(287.642 -637.68)"/>
                    <path id="Line_447" d="M1635.581 0L0 1635.581" class="cls-5" transform="translate(303.13 -622.192)"/>
                    <path id="Line_448" d="M1635.581 0L0 1635.581" class="cls-5" transform="translate(318.619 -606.703)"/>
                    <path id="Line_449" d="M1635.581 0L0 1635.581" class="cls-5" transform="translate(334.108 -591.214)"/>
                    <path id="Line_450" d="M1635.581 0L0 1635.581" class="cls-5" transform="translate(349.597 -575.725)"/>
                    <path id="Line_451" d="M1635.581 0L0 1635.581" class="cls-5" transform="translate(365.086 -560.236)"/>
                    <path id="Line_452" d="M1635.581 0L0 1635.581" class="cls-5" transform="translate(380.575 -544.747)"/>
                    <path id="Line_453" d="M1635.581 0L0 1635.581" class="cls-5" transform="translate(396.064 -529.258)"/>
                    <path id="Line_454" d="M1635.581 0L0 1635.581" class="cls-5" transform="translate(411.552 -513.77)"/>
                    <path id="Line_455" d="M1635.581 0L0 1635.581" class="cls-5" transform="translate(427.041 -498.281)"/>
                    <path id="Line_456" d="M1635.581 0L0 1635.581" class="cls-5" transform="translate(442.53 -482.792)"/>
                    <path id="Line_457" d="M1635.581 0L0 1635.581" class="cls-5" transform="translate(458.019 -467.303)"/>
                    <path id="Line_458" d="M1635.581 0L0 1635.581" class="cls-5" transform="translate(473.508 -451.814)"/>
                    <path id="Line_459" d="M1635.581 0L0 1635.581" class="cls-5" transform="translate(488.997 -436.325)"/>
                    <path id="Line_460" d="M1635.581 0L0 1635.581" class="cls-5" transform="translate(504.485 -420.837)"/>
                    <path id="Line_461" d="M1635.581 0L0 1635.581" class="cls-5" transform="translate(519.974 -405.348)"/>
                    <path id="Line_462" d="M1635.581 0L0 1635.581" class="cls-5" transform="translate(535.463 -389.859)"/>
                    <path id="Line_463" d="M1635.581 0L0 1635.581" class="cls-5" transform="translate(550.952 -374.37)"/>
                    <path id="Line_464" d="M1635.581 0L0 1635.581" class="cls-5" transform="translate(566.441 -358.881)"/>
                    <path id="Line_465" d="M1635.581 0L0 1635.581" class="cls-5" transform="translate(581.93 -343.392)"/>
                    <path id="Line_466" d="M1635.581 0L0 1635.581" class="cls-5" transform="translate(597.419 -327.903)"/>
                    <path id="Line_467" d="M1635.581 0L0 1635.581" class="cls-5" transform="translate(612.907 -312.415)"/>
                    <path id="Line_468" d="M1635.581 0L0 1635.581" class="cls-5" transform="translate(628.396 -296.926)"/>
                    <path id="Line_469" d="M1635.581 0L0 1635.581" class="cls-5" transform="translate(643.885 -281.437)"/>
                    <path id="Line_470" d="M1635.581 0L0 1635.581" class="cls-5" transform="translate(659.374 -265.948)"/>
                    <path id="Line_471" d="M1635.581 0L0 1635.581" class="cls-5" transform="translate(674.863 -250.459)"/>
                    <path id="Line_472" d="M1635.581 0L0 1635.581" class="cls-5" transform="translate(690.352 -234.97)"/>
                    <path id="Line_473" d="M1635.581 0L0 1635.581" class="cls-5" transform="translate(705.84 -219.482)"/>
                    <path id="Line_474" d="M1635.581 0L0 1635.581" class="cls-5" transform="translate(721.329 -203.993)"/>
                    <path id="Line_475" d="M1635.581 0L0 1635.581" class="cls-5" transform="translate(736.818 -188.504)"/>
                    <path id="Line_476" d="M1635.581 0L0 1635.581" class="cls-5" transform="translate(752.307 -173.015)"/>
                    <path id="Line_477" d="M1635.581 0L0 1635.581" class="cls-5" transform="translate(225.686 -699.636)"/>
                    <path id="Line_478" d="M1635.581 0L0 1635.581" class="cls-5" transform="translate(210.197 -715.125)"/>
                    <path id="Line_479" d="M1635.581 0L0 1635.581" class="cls-5" transform="translate(194.709 -730.613)"/>
                    <path id="Line_480" d="M1635.581 0L0 1635.581" class="cls-5" transform="translate(179.22 -746.102)"/>
                    <path id="Line_481" d="M1635.581 0L0 1635.581" class="cls-5" transform="translate(163.731 -761.591)"/>
                    <path id="Line_482" d="M1635.581 0L0 1635.581" class="cls-5" transform="translate(148.242 -777.08)"/>
                    <path id="Line_483" d="M1635.581 0L0 1635.581" class="cls-5" transform="translate(132.753 -792.569)"/>
                    <path id="Line_484" d="M1635.581 0L0 1635.581" class="cls-5" transform="translate(117.264 -808.058)"/>
                    <path id="Line_485" d="M1635.581 0L0 1635.581" class="cls-5" transform="translate(101.775 -823.547)"/>
                    <path id="Line_486" d="M1635.581 0L0 1635.581" class="cls-5" transform="translate(86.287 -839.035)"/>
                    <path id="Line_487" d="M1635.581 0L0 1635.581" class="cls-5" transform="translate(70.798 -854.524)"/>
                    <path id="Line_488" d="M1635.581 0L0 1635.581" class="cls-5" transform="translate(55.309 -870.013)"/>
                    <path id="Line_489" d="M1635.581 0L0 1635.581" class="cls-5" transform="translate(39.82 -885.502)"/>
                    <path id="Line_490" d="M1635.581 0L0 1635.581" class="cls-5" transform="translate(24.331 -900.991)"/>
                    <path id="Line_491" d="M1635.581 0L0 1635.581" class="cls-5" transform="translate(8.842 -916.48)"/>
                </g>
            </g>
        </g>
        <path id="Rectangle_157" d="M0 0H80.979V65.681H0z" class="cls-3" transform="translate(1677.021 416.644)"/>
        <path id="Rectangle_158" d="M0 0H85.143V65.681H0z" class="cls-3" transform="translate(1619.845 517.372)"/>
    </g>
</svg>
