<svg xmlns="http://www.w3.org/2000/svg" width="433.072" height="702.954" viewBox="0 0 433.072 702.954">
    <defs>
        <clipPath id="clip-path">
            <path id="Rectangle_166" fill="none" d="M0 0H157.409V104.872H0z" transform="rotate(90 -916.936 1443.156)"/>
        </clipPath>
        <style>
            .cls-5{fill:none}.cls-3,.cls-5{stroke:#484d51;stroke-linecap:round;stroke-linejoin:round;stroke-width:4px}.cls-3{fill:#f2f2f2}
        </style>
    </defs>
    <g id="Group_86" transform="translate(-138.496 -1816.547)">
        <path id="Rectangle_163" fill="#484d51" stroke="#484d51" stroke-linecap="round" stroke-linejoin="round" stroke-width="4px" d="M0 0H302.228V302.228H0z" transform="rotate(45 -2018.665 1338.25)"/>
        <path id="Rectangle_164" d="M0 0H481.133V104.872H0z" class="cls-3" transform="rotate(90 -755.074 1281.294)"/>
        <path id="Path_26" d="M526.218 2036.368v39.24l-104.87 104.87v-144.11z" class="cls-3"/>
        <path id="Rectangle_165" d="M0 0H104.872V157.409H0z" class="cls-3" transform="translate(421.349 2360.092)"/>
        <g id="Group_48">
            <g id="Group_47" clip-path="url(#clip-path)">
                <g id="Group_46">
                    <path id="Line_492" d="M1734.667 1734.667L0 0" class="cls-5" transform="translate(-500.184 1865.666)"/>
                    <path id="Line_493" d="M1734.667 1734.667L0 0" class="cls-5" transform="translate(-483.757 1849.239)"/>
                    <path id="Line_494" d="M1734.667 1734.667L0 0" class="cls-5" transform="translate(-467.33 1832.812)"/>
                    <path id="Line_495" d="M1734.667 1734.667L0 0" class="cls-5" transform="translate(-450.903 1816.384)"/>
                    <path id="Line_496" d="M1734.667 1734.667L0 0" class="cls-5" transform="translate(-434.475 1799.957)"/>
                    <path id="Line_497" d="M1734.667 1734.667L0 0" class="cls-5" transform="translate(-418.048 1783.53)"/>
                    <path id="Line_498" d="M1734.667 1734.667L0 0" class="cls-5" transform="translate(-401.621 1767.103)"/>
                    <path id="Line_499" d="M1734.667 1734.667L0 0" class="cls-5" transform="translate(-385.194 1750.676)"/>
                    <path id="Line_500" d="M1734.667 1734.667L0 0" class="cls-5" transform="translate(-368.767 1734.248)"/>
                    <path id="Line_501" d="M1734.667 1734.667L0 0" class="cls-5" transform="translate(-352.34 1717.821)"/>
                    <path id="Line_502" d="M1734.667 1734.667L0 0" class="cls-5" transform="translate(-335.912 1701.394)"/>
                    <path id="Line_503" d="M1734.667 1734.667L0 0" class="cls-5" transform="translate(-319.485 1684.967)"/>
                    <path id="Line_504" d="M1734.667 1734.667L0 0" class="cls-5" transform="translate(-303.058 1668.54)"/>
                    <path id="Line_505" d="M1734.667 1734.667L0 0" class="cls-5" transform="translate(-286.631 1652.113)"/>
                    <path id="Line_506" d="M1734.667 1734.667L0 0" class="cls-5" transform="translate(-270.204 1635.685)"/>
                    <path id="Line_507" d="M1734.667 1734.667L0 0" class="cls-5" transform="translate(-253.776 1619.258)"/>
                    <path id="Line_508" d="M1734.667 1734.667L0 0" class="cls-5" transform="translate(-237.349 1602.831)"/>
                    <path id="Line_509" d="M1734.667 1734.667L0 0" class="cls-5" transform="translate(-220.922 1586.404)"/>
                    <path id="Line_510" d="M1734.667 1734.667L0 0" class="cls-5" transform="translate(-204.495 1569.977)"/>
                    <path id="Line_511" d="M1734.667 1734.667L0 0" class="cls-5" transform="translate(-188.068 1553.549)"/>
                    <path id="Line_512" d="M1734.667 1734.667L0 0" class="cls-5" transform="translate(-171.64 1537.122)"/>
                    <path id="Line_513" d="M1734.667 1734.667L0 0" class="cls-5" transform="translate(-155.213 1520.695)"/>
                    <path id="Line_514" d="M1734.667 1734.667L0 0" class="cls-5" transform="translate(-138.786 1504.268)"/>
                    <path id="Line_515" d="M1734.667 1734.667L0 0" class="cls-5" transform="translate(-122.359 1487.841)"/>
                    <path id="Line_516" d="M1734.667 1734.667L0 0" class="cls-5" transform="translate(-105.932 1471.413)"/>
                    <path id="Line_517" d="M1734.667 1734.667L0 0" class="cls-5" transform="translate(-89.505 1454.986)"/>
                    <path id="Line_518" d="M1734.667 1734.667L0 0" class="cls-5" transform="translate(-73.077 1438.559)"/>
                    <path id="Line_519" d="M1734.667 1734.667L0 0" class="cls-5" transform="translate(-56.65 1422.132)"/>
                    <path id="Line_520" d="M1734.667 1734.667L0 0" class="cls-5" transform="translate(-40.223 1405.705)"/>
                    <path id="Line_521" d="M1734.667 1734.667L0 0" class="cls-5" transform="translate(-23.796 1389.277)"/>
                    <path id="Line_522" d="M1734.667 1734.667L0 0" class="cls-5" transform="translate(-7.369 1372.85)"/>
                    <path id="Line_523" d="M1734.667 1734.667L0 0" class="cls-5" transform="translate(9.059 1356.423)"/>
                    <path id="Line_524" d="M1734.667 1734.667L0 0" class="cls-5" transform="translate(25.486 1339.996)"/>
                    <path id="Line_525" d="M1734.667 1734.667L0 0" class="cls-5" transform="translate(41.913 1323.569)"/>
                    <path id="Line_526" d="M1734.667 1734.667L0 0" class="cls-5" transform="translate(-516.611 1882.093)"/>
                    <path id="Line_527" d="M1734.667 1734.667L0 0" class="cls-5" transform="translate(-533.039 1898.52)"/>
                    <path id="Line_528" d="M1734.667 1734.667L0 0" class="cls-5" transform="translate(-549.466 1914.948)"/>
                    <path id="Line_529" d="M1734.667 1734.667L0 0" class="cls-5" transform="translate(-565.893 1931.375)"/>
                    <path id="Line_530" d="M1734.667 1734.667L0 0" class="cls-5" transform="translate(-582.32 1947.802)"/>
                    <path id="Line_531" d="M1734.667 1734.667L0 0" class="cls-5" transform="translate(-598.747 1964.229)"/>
                    <path id="Line_532" d="M1734.667 1734.667L0 0" class="cls-5" transform="translate(-615.174 1980.656)"/>
                    <path id="Line_533" d="M1734.667 1734.667L0 0" class="cls-5" transform="translate(-631.602 1997.083)"/>
                    <path id="Line_534" d="M1734.667 1734.667L0 0" class="cls-5" transform="translate(-648.029 2013.511)"/>
                    <path id="Line_535" d="M1734.667 1734.667L0 0" class="cls-5" transform="translate(-664.456 2029.938)"/>
                    <path id="Line_536" d="M1734.667 1734.667L0 0" class="cls-5" transform="translate(-680.883 2046.365)"/>
                    <path id="Line_537" d="M1734.667 1734.667L0 0" class="cls-5" transform="translate(-697.31 2062.792)"/>
                    <path id="Line_538" d="M1734.667 1734.667L0 0" class="cls-5" transform="translate(-713.738 2079.219)"/>
                    <path id="Line_539" d="M1734.667 1734.667L0 0" class="cls-5" transform="translate(-730.165 2095.646)"/>
                    <path id="Line_540" d="M1734.667 1734.667L0 0" class="cls-5" transform="translate(-746.592 2112.074)"/>
                </g>
            </g>
        </g>
    </g>
</svg>
