<svg xmlns="http://www.w3.org/2000/svg" width="30.54" height="30.539" viewBox="0 0 30.54 30.539">
    <defs>
        <style>
            .cls-1{fill:#f2f2f2}
        </style>
    </defs>
    <g id="Grupo_55" transform="translate(5878.183 -4936.733)">
        <path id="Trazado_80" d="M-5856.063 4936.733h-13.7a8.419 8.419 0 0 0-8.419 8.42v13.7a8.418 8.418 0 0 0 8.418 8.418h13.7a8.419 8.419 0 0 0 8.42-8.418v-13.7a8.42 8.42 0 0 0-8.419-8.42zm5.952 22.089a5.988 5.988 0 0 1-5.987 5.986h-13.634a5.987 5.987 0 0 1-5.986-5.986v-13.634a5.986 5.986 0 0 1 5.986-5.986h13.634a5.987 5.987 0 0 1 5.987 5.986z" class="cls-1"/>
        <path id="Trazado_81" d="M-5862.915 4943.959a8.05 8.05 0 0 0-8.05 8.049 8.05 8.05 0 0 0 8.049 8.05 8.049 8.049 0 0 0 8.049-8.049 8.049 8.049 0 0 0-8.048-8.05zm0 13.3a5.249 5.249 0 0 1-5.25-5.25 5.25 5.25 0 0 1 5.25-5.25 5.251 5.251 0 0 1 5.25 5.25 5.25 5.25 0 0 1-5.25 5.25z" class="cls-1"/>
        <path id="Trazado_82" d="M-5852.787 4943.688a1.806 1.806 0 0 1-1.807 1.806 1.8 1.8 0 0 1-1.8-1.806 1.806 1.806 0 0 1 1.8-1.806 1.807 1.807 0 0 1 1.807 1.806z" class="cls-1"/>
    </g>
</svg>
