<svg xmlns="http://www.w3.org/2000/svg" width="430" height="34.572" viewBox="0 0 430 34.572">
    <defs>
        <style>
            .cls-1{fill:#484d51}
        </style>
    </defs>
    <g id="Group_3" transform="translate(6726.231 -59)">
        <path id="Trazado_1" d="M-6591.117 77.362l-15.41-16.987h-9.562v30.136l-13.078-30.136h-13.173l-13.315 30.787-7.141-11.426a9.876 9.876 0 0 0 3.018-1.1 8.95 8.95 0 0 0 4.391-8.038 10.65 10.65 0 0 0-1.647-5.8c-2.608-4.109-6.771-4.428-11.108-4.428h-58.089v7.212h11.479v25.043h11.615V67.587h11.209v25.038h11.615V80.879h6.136l6.676 11.737h23.929l1.739-5.253h12.353l1.739 5.253h23.088V75.353l15.32 17.272h9.6v-32.25h-11.388zm-76.437-4.887c-.732.868-1.875 1.141-4.068 1.141h-8.691v-5.935h9.606a3.646 3.646 0 0 1 3.293 1.32 2.915 2.915 0 0 1 .5 1.645 2.8 2.8 0 0 1-.641 1.826zm28.143 7.765l3.708-10.914 3.8 10.914z" class="cls-1"/>
        <path id="Trazado_2" d="M-6551.719 73.524c-5.761-1.32-11.478-2.1-13.079-3.38a1.78 1.78 0 0 1-.732-1.461 1.985 1.985 0 0 1 .732-1.553 7.9 7.9 0 0 1 4.338-1.095c2.927 0 4.573.731 5.305 1.963a7.244 7.244 0 0 1 .411 1.05l11.3-.639a9.161 9.161 0 0 0-3.746-6.484 10.421 10.421 0 0 0-3.155-1.644A37.283 37.283 0 0 0-6560.412 59c-8.277 0-12.758 2.239-14.863 5.618a8.633 8.633 0 0 0-1.418 4.751 8.138 8.138 0 0 0 1.28 4.475 11.058 11.058 0 0 0 6.905 4.248c2.515.684 5.075 1.1 7.59 1.6a35.689 35.689 0 0 1 4.94 1.1 2.5 2.5 0 0 1 1.831 2.329 3.074 3.074 0 0 1-1.831 2.557 8.818 8.818 0 0 1-3.75.685 9.019 9.019 0 0 1-5.716-1.416 3.242 3.242 0 0 1-1.464-2.239l-11.387.271a10.563 10.563 0 0 0 2.606 6.12c2.379 2.7 6.677 4.476 14.268 4.476 8.826 0 13.673-1.873 16.372-5.253a9.869 9.869 0 0 0 2.15-6.12 7.466 7.466 0 0 0-2.15-5.526 12.17 12.17 0 0 0-6.67-3.152z" class="cls-1"/>
        <path id="Trazado_3" d="M-6505.578 70.648a11.791 11.791 0 0 0-1.143-5.388c-1.831-3.654-5.077-4.566-8.864-4.8-1.1-.09-2.241-.09-3.338-.09h-22.149v32.25h11.525V81.251h8.734c3.521 0 8-.045 11.114-2.146a9.769 9.769 0 0 0 4.121-8.457zm-13.811 3.149a9.546 9.546 0 0 1-2.607.189h-7.544v-6.307h8.415a3.626 3.626 0 0 1 3.567 1.509 3.482 3.482 0 0 1 .411 1.645 2.875 2.875 0 0 1-2.24 2.968z" class="cls-1"/>
        <path id="Trazado_4" d="M-6423.655 80.147h20.808v-7.262h-20.808v-5.3h22.5v-7.21h-34.07v32.152l-7.992-12.789a9.822 9.822 0 0 0 3.017-1.1 8.945 8.945 0 0 0 4.391-8.038 10.656 10.656 0 0 0-1.646-5.8c-2.606-4.11-6.769-4.428-11.113-4.428h-23.781v30.25l-13.126-30.247h-13.17l-13.956 32.25h12.716l1.738-5.252h12.346l1.737 5.252h23.326V80.879h6.127l6.677 11.737h47.183v-7.307h-22.91zm-72.065.091l3.7-10.914 3.8 10.914zm47.745-7.765c-.732.868-1.875 1.141-4.068 1.141h-8.691v-5.933h9.6a3.645 3.645 0 0 1 3.294 1.32 2.922 2.922 0 0 1 .5 1.645 2.8 2.8 0 0 1-.641 1.826z" class="cls-1"/>
        <path id="Trazado_5" d="M-6328.528 60.373h-45.535v16.989l-15.412-16.989h-9.558v32.25h11.435v-17.27l15.319 17.263h9.6V67.6h11.1v25.023h11.616V67.6h11.433z" class="cls-1"/>
        <path id="Trazado_6" d="M-6310.223 60.375h-13.167l-13.956 32.25h12.715l1.739-5.254h12.347l1.739 5.252h12.575zm-10.243 19.865l3.7-10.914 3.8 10.914z" class="cls-1"/>
    </g>
</svg>
