<svg xmlns="http://www.w3.org/2000/svg" width="30.7" height="24.965" viewBox="0 0 30.7 24.965">
    <g>
        <path fill="#f2f2f2" d="M-5736.974 4943.324a12.6 12.6 0 0 1-3.618.991 6.316 6.316 0 0 0 2.77-3.484 12.586 12.586 0 0 1-4 1.528 6.3 6.3 0 0 0-8.905-.3 6.3 6.3 0 0 0-1.829 6.042 17.877 17.877 0 0 1-12.982-6.582 6.3 6.3 0 0 0 1.95 8.41 6.252 6.252 0 0 1-2.853-.788v.08a6.3 6.3 0 0 0 5.053 6.176 6.246 6.246 0 0 1-1.659.222 6.361 6.361 0 0 1-1.186-.112 6.3 6.3 0 0 0 5.884 4.374 12.632 12.632 0 0 1-7.824 2.7 12.946 12.946 0 0 1-1.5-.087 17.823 17.823 0 0 0 9.654 2.831c11.586 0 17.922-9.6 17.922-17.923 0-.272-.006-.545-.019-.814a12.765 12.765 0 0 0 3.143-3.26z" transform="translate(5767.673 -4940.363)"/>
    </g>
</svg>
