<svg id="Capa_1" data-name="Capa 1" xmlns="http://www.w3.org/2000/svg" viewBox="0 0 1080 1080"><defs><style>.cls-1{fill:#3a3d3f;}</style></defs><path class="cls-1" d="M10.72,454.89H51.79l21.89,78.6c5.52,19.7,9.9,36.89,15.22,58.68h.62c5.32-21.79,9.91-39,15.33-58.68l21.78-78.6H167.7l-50,170.22H60.76Z"/><path class="cls-1" d="M1069.28,625.11h-41.07l-21.89-78.6c-5.52-19.7-9.9-36.89-15.22-58.68h-.62c-5.32,21.79-9.91,39-15.33,58.68l-21.78,78.6H912.3l50-170.22h56.91Z"/><path class="cls-1" d="M216.75,454.89h39.6V625.11h-39.6Z"/><path class="cls-1" d="M863.28,625.11h-39.6V454.89h39.6Z"/><path class="cls-1" d="M520.57,454.89h39.61V625.11H520.57Z"/><path class="cls-1" d="M341.66,617.87c-14.17-8.94-19.9-26.33-19.9-40.65l40.27,0C362,589.73,372.7,596,389,596s26.48-5.32,26.48-16.68c0-12.2-9.39-16-25.23-19.7l-14.07-3.34c-32.73-7.71-52-23.14-52-52.74,0-33.15,24.7-51.91,66.5-51.91,17.3,0,29.21,2.48,41.78,9.41,15.05,8.31,20.17,26,20.17,40.92H412.32c0-11.46-6.77-18-23-18-17.09,0-25.33,5.74-25.33,17,0,12.1,9.49,15.64,24.71,19.29l14.28,3.44c27.72,6.67,52.32,15.95,52.32,51.28,0,34-23.87,53.37-66.5,53.37C370.75,628.34,355.41,626.54,341.66,617.87Z"/><path class="cls-1" d="M765.56,575.91c0,31.06-18.55,49.2-59.31,49.2H630.68V454.89H700c43.36,0,57.12,16.05,57.12,42.84,0,18.95-7.94,29.32-17.45,35.83C759.57,539.38,765.56,556.54,765.56,575.91Zm-95.27-47.53c8-4.41,15.22-5.38,24.29-7.43,10.19-2.31,22.09-3,22.09-20.12,0-9.23-4.68-14.46-20.95-14.46H670.29ZM725,571.53c0-14.38-7-21.95-18.6-21.95-23.68,4.18-36.13,9.74-36.13,22v22h32.84C718.45,593.63,725,585.71,725,571.53Z"/></svg>